<?xml version="1.0" encoding="UTF-8"?>
<svg width="23px" height="22px" viewBox="0 0 23 22" version="1.1" xmlns="http://www.w3.org/2000/svg" xmlns:xlink="http://www.w3.org/1999/xlink">
    <title>2E9D6051-B16F-4799-8AD9-C40FDA0984B2</title>
    <g id="NEXTON-AGENCY-V3" stroke="none" stroke-width="1" fill="none" fill-rule="evenodd">
        <g id="Home_Desktop_Welcome" transform="translate(-1304.000000, -819.000000)" fill="#FFFFFF">
            <g id="Social-Media---contact" transform="translate(120.000000, 798.000000)">
                <g id="Group" transform="translate(0.000000, 14.000000)">
                    <g id="Instagram" transform="translate(1184.690000, 7.000000)">
                        <path d="M11.03,0.596 C8.196,0.596 7.841,0.608 6.728,0.659 C5.617,0.71 4.859,0.886 4.195,1.144 C3.509,1.411 2.927,1.768 2.347,2.348 C1.767,2.928 1.41,3.51 1.144,4.196 C0.886,4.86 0.709,5.618 0.659,6.729 C0.608,7.842 0.596,8.197 0.596,11.031 C0.596,13.865 0.608,14.22 0.659,15.333 C0.709,16.444 0.886,17.202 1.144,17.866 C1.41,18.552 1.767,19.134 2.347,19.714 C2.927,20.294 3.509,20.651 4.195,20.918 C4.859,21.175 5.617,21.352 6.728,21.403 C7.841,21.453 8.196,21.465 11.03,21.465 C13.864,21.465 14.219,21.453 15.332,21.403 C16.443,21.352 17.201,21.175 17.865,20.918 C18.551,20.651 19.133,20.294 19.713,19.714 C20.293,19.134 20.65,18.552 20.917,17.866 C21.175,17.202 21.351,16.444 21.402,15.333 C21.453,14.22 21.465,13.865 21.465,11.031 C21.465,8.197 21.453,7.842 21.402,6.729 C21.351,5.618 21.175,4.86 20.917,4.196 C20.65,3.51 20.293,2.928 19.713,2.348 C19.133,1.768 18.551,1.411 17.865,1.144 C17.201,0.886 16.443,0.71 15.332,0.659 C14.219,0.608 13.864,0.596 11.03,0.596 M11.03,2.476 C13.817,2.476 14.146,2.487 15.247,2.537 C16.264,2.584 16.817,2.754 17.184,2.897 C17.671,3.086 18.019,3.312 18.384,3.677 C18.749,4.042 18.975,4.39 19.164,4.877 C19.307,5.245 19.477,5.797 19.524,6.815 C19.574,7.915 19.585,8.245 19.585,11.031 C19.585,13.817 19.574,14.147 19.524,15.247 C19.477,16.265 19.307,16.817 19.164,17.185 C18.975,17.672 18.749,18.019 18.384,18.385 C18.019,18.75 17.671,18.976 17.184,19.165 C16.817,19.308 16.264,19.478 15.247,19.524 C14.146,19.574 13.817,19.585 11.03,19.585 C8.244,19.585 7.914,19.574 6.814,19.524 C5.797,19.478 5.244,19.308 4.876,19.165 C4.389,18.976 4.042,18.75 3.677,18.385 C3.311,18.019 3.085,17.672 2.896,17.185 C2.753,16.817 2.583,16.265 2.537,15.247 C2.487,14.147 2.476,13.817 2.476,11.031 C2.476,8.245 2.487,7.915 2.537,6.815 C2.583,5.797 2.753,5.245 2.896,4.877 C3.085,4.39 3.311,4.042 3.677,3.677 C4.042,3.312 4.389,3.086 4.876,2.897 C5.244,2.754 5.797,2.584 6.814,2.537 C7.914,2.487 8.244,2.476 11.03,2.476" id="Fill-75"></path>
                        <path d="M11.03,14.509 C9.109,14.509 7.552,12.952 7.552,11.031 C7.552,9.11 9.109,7.553 11.03,7.553 C12.951,7.553 14.508,9.11 14.508,11.031 C14.508,12.952 12.951,14.509 11.03,14.509 M11.03,5.673 C8.071,5.673 5.672,8.072 5.672,11.031 C5.672,13.99 8.071,16.389 11.03,16.389 C13.99,16.389 16.388,13.99 16.388,11.031 C16.388,8.072 13.99,5.673 11.03,5.673" id="Fill-76"></path>
                        <path d="M17.852,5.461 C17.852,6.152 17.292,6.713 16.6,6.713 C15.909,6.713 15.348,6.152 15.348,5.461 C15.348,4.769 15.909,4.209 16.6,4.209 C17.292,4.209 17.852,4.769 17.852,5.461" id="Fill-77"></path>
                    </g>
                </g>
            </g>
        </g>
    </g>
</svg>