<?xml version="1.0" encoding="UTF-8"?>
<svg width="20px" height="19px" viewBox="0 0 20 19" version="1.1" xmlns="http://www.w3.org/2000/svg" xmlns:xlink="http://www.w3.org/1999/xlink">
    <title>70370FE5-5F50-4593-9848-1F2F6E4C0F4E</title>
    <g id="NEXTON-AGENCY-V3" stroke="none" stroke-width="1" fill="none" fill-rule="evenodd">
        <g id="Home_Desktop_Welcome" transform="translate(-1223.000000, -819.000000)" fill="#FFFFFF">
            <g id="Social-Media---contact" transform="translate(120.000000, 798.000000)">
                <g id="Group" transform="translate(0.000000, 14.000000)">
                    <path d="M1108,9.5 C1108,10.880597 1106.88016,12 1105.49972,12 C1104.11984,12 1103,10.880597 1103,9.5 C1103,8.11940299 1104.11984,7 1105.49972,7 C1106.88016,7 1108,8.11940299 1108,9.5 Z M1104,26 L1108,26 L1108,13 L1104,13 L1104,26 Z M1123,18.7161063 L1123,26 L1118.74136,26 L1118.74136,19.2042885 C1118.74136,17.4978633 1118.12661,16.3327157 1116.58428,16.3327157 C1115.40783,16.3327157 1114.70879,17.1173467 1114.39993,17.876905 C1114.28789,18.1482812 1114.25913,18.5253564 1114.25913,18.9063646 L1114.25913,26 L1110,26 C1110,26 1110.05701,14.4901108 1110,13.2984155 L1114.25913,13.2984155 L1114.25913,15.0982491 C1114.25021,15.1129978 1114.23831,15.1262716 1114.23038,15.1400371 L1114.25913,15.1400371 L1114.25913,15.0982491 C1114.8253,14.2344666 1115.83468,13 1118.09687,13 C1120.89894,13 1123,14.8155656 1123,18.7161063 L1123,18.7161063 Z" id="LinkedIn"></path>
                </g>
            </g>
        </g>
    </g>
</svg>