<?xml version="1.0" encoding="UTF-8"?>
<svg width="164px" height="60px" viewBox="0 0 164 60" version="1.1" xmlns="http://www.w3.org/2000/svg" xmlns:xlink="http://www.w3.org/1999/xlink">
    <title>CAAF3EDF-FF5F-42F5-A3AE-31A4CAF99035</title>
    <defs>
        <path d="M79.7638441,54.5407725 L81.9056548,48.72103 L90.1705245,48.72103 L92.2619396,54.5407725 L94.0257838,54.5407725 L87.0711984,36 L85.1309698,36 L78,54.5407725 L79.7638441,54.5407725 Z M89.5909757,47.2274678 L82.4852036,47.2274678 L86.0380897,37.4935622 L89.5909757,47.2274678 Z M101.711105,60 C102.954195,60 103.970505,59.8154506 104.760035,59.4463519 C105.549565,59.0772532 106.17111,58.583691 106.62467,57.9656652 C107.07823,57.3476395 107.393202,56.6309013 107.569587,55.8154506 C107.745971,55 107.834163,54.1459227 107.834163,53.2532189 L107.834163,53.2532189 L107.834163,41.2017167 L106.322297,41.2017167 L106.322297,43.5450644 L106.271902,43.5450644 C106.053521,43.1158798 105.772146,42.7296137 105.427776,42.3862661 C105.083407,42.0429185 104.70544,41.7596567 104.293876,41.5364807 C103.882313,41.3133047 103.45815,41.1416309 103.021389,41.0214592 C102.584627,40.9012876 102.156265,40.8412017 101.736302,40.8412017 C100.677996,40.8412017 99.7792753,41.0214592 99.0401406,41.3819742 C98.301006,41.7424893 97.6920598,42.2360515 97.2133021,42.8626609 C96.7345444,43.4892704 96.3859752,44.2317597 96.1675945,45.0901288 C95.9492138,45.9484979 95.8400234,46.8669528 95.8400234,47.8454936 C95.8400234,48.7725322 95.957613,49.6652361 96.1927923,50.5236052 C96.4279715,51.3819742 96.7849399,52.1330472 97.2636976,52.776824 C97.7424553,53.4206009 98.3472019,53.9356223 99.0779373,54.3218884 C99.8086727,54.7081545 100.669597,54.9012876 101.660709,54.9012876 C102.584627,54.9012876 103.470749,54.6909871 104.319074,54.2703863 C105.167399,53.8497854 105.83514,53.2274678 106.322297,52.4034335 C106.339096,53.1759657 106.301299,53.9313305 106.208907,54.6695279 C106.116515,55.4077253 105.910733,56.0686695 105.591562,56.6523605 C105.27239,57.2360515 104.802031,57.7081545 104.180486,58.0686695 C103.558941,58.4291845 102.735814,58.6094421 101.711105,58.6094421 C101.257545,58.6094421 100.820783,58.5751073 100.40082,58.5064378 C99.9808575,58.4377682 99.5986913,58.3133047 99.2543217,58.1330472 C98.9099521,57.9527897 98.6117785,57.7038627 98.3598008,57.3862661 C98.107823,57.0686695 97.9230394,56.6609442 97.8054498,56.1630901 L97.8054498,56.1630901 L96.1927923,56.1630901 C96.2095908,56.5579399 96.33138,56.9828326 96.55816,57.4377682 C96.7849399,57.8927039 97.1167106,58.3090129 97.553472,58.6866953 C97.9902334,59.0643777 98.5529837,59.3776824 99.2417228,59.6266094 C99.930462,59.8755365 100.753589,60 101.711105,60 Z M101.912687,53.5107296 C101.123157,53.5107296 100.442817,53.3519313 99.8716672,53.0343348 C99.3005176,52.7167382 98.8301592,52.2832618 98.4605919,51.7339056 C98.0910245,51.1845494 97.8222483,50.5450644 97.6542631,49.8154506 C97.486278,49.0858369 97.4190839,48.3004292 97.4526809,47.4592275 C97.4526809,46.6180258 97.5660709,45.8755365 97.7928509,45.2317597 C98.0196308,44.5879828 98.334603,44.0429185 98.7377674,43.5965665 C99.1409317,43.1502146 99.6112902,42.8111588 100.148843,42.5793991 C100.686395,42.3476395 101.274343,42.2317597 101.912687,42.2317597 C102.618224,42.2317597 103.248169,42.3776824 103.80252,42.6695279 C104.356871,42.9613734 104.81883,43.360515 105.188397,43.8669528 C105.557965,44.3733906 105.83934,44.9742489 106.032523,45.6695279 C106.225706,46.3648069 106.322297,47.1158798 106.322297,47.9227468 C106.322297,48.6781116 106.221506,49.3948498 106.019924,50.0729614 C105.818342,50.751073 105.528567,51.3433476 105.150601,51.8497854 C104.772634,52.3562232 104.310675,52.7596567 103.764723,53.0600858 C103.218771,53.360515 102.601426,53.5107296 101.912687,53.5107296 Z M116.955757,54.9012876 C117.778885,54.9012876 118.501221,54.7896996 119.122766,54.5665236 C119.744311,54.3433476 120.281863,54.0300429 120.735423,53.6266094 C121.188983,53.223176 121.56695,52.751073 121.869323,52.2103004 C122.171696,51.6695279 122.415275,51.0815451 122.600059,50.4463519 L122.600059,50.4463519 L120.911808,50.4463519 C120.676629,51.4248927 120.20627,52.1802575 119.500732,52.7124464 C118.795195,53.2446352 117.94687,53.5107296 116.955757,53.5107296 C116.233421,53.5107296 115.595078,53.3690987 115.040727,53.0858369 C114.486376,52.8025751 114.028616,52.4248927 113.667448,51.9527897 C113.30628,51.4806867 113.033304,50.9227468 112.84852,50.27897 C112.663737,49.6351931 112.571345,48.9527897 112.571345,48.2317597 L112.571345,48.2317597 L122.70085,48.2317597 C122.717648,45.8283262 122.213693,43.9957082 121.188983,42.7339056 C120.164274,41.472103 118.753199,40.8412017 116.955757,40.8412017 C116.015041,40.8412017 115.175115,41.0257511 114.43598,41.3948498 C113.696845,41.7639485 113.071101,42.2703863 112.558746,42.9141631 C112.046391,43.5579399 111.651626,44.3090129 111.374451,45.167382 C111.097275,46.0257511 110.958687,46.944206 110.958687,47.9227468 C110.958687,48.9012876 111.076277,49.8154506 111.311456,50.6652361 C111.546635,51.5150215 111.907803,52.2532189 112.39496,52.8798283 C112.882117,53.5064378 113.503662,54 114.259596,54.360515 C115.015529,54.72103 115.914249,54.9012876 116.955757,54.9012876 Z M121.088192,46.944206 L112.571345,46.944206 C112.638539,46.3090129 112.781326,45.7081545 112.999707,45.1416309 C113.218088,44.5751073 113.507862,44.0772532 113.86903,43.6480687 C114.230198,43.2188841 114.66696,42.8755365 115.179314,42.6180258 C115.691669,42.360515 116.283817,42.2317597 116.955757,42.2317597 C117.627698,42.2317597 118.224045,42.3562232 118.744799,42.6051502 C119.265553,42.8540773 119.698115,43.1888412 120.042485,43.6094421 C120.386854,44.0300429 120.647231,44.527897 120.823616,45.1030043 C121,45.6781116 121.088192,46.2918455 121.088192,46.944206 L121.088192,46.944206 Z M127.160856,54.5407725 L127.160856,47.3562232 C127.160856,46.8927039 127.177654,46.4635193 127.211251,46.0686695 C127.244848,45.6738197 127.33724,45.2618026 127.488427,44.832618 C127.606016,44.4892704 127.774001,44.1630901 127.992382,43.8540773 C128.210763,43.5450644 128.475339,43.2703863 128.786112,43.0300429 C129.096884,42.7896996 129.445454,42.5965665 129.83182,42.4506438 C130.218185,42.304721 130.646548,42.2317597 131.116906,42.2317597 C132.326399,42.2317597 133.191523,42.5321888 133.712277,43.1330472 C134.233031,43.7339056 134.493408,44.6351931 134.493408,45.8369099 L134.493408,45.8369099 L134.493408,54.5407725 L136.005274,54.5407725 L136.005274,45.8111588 C136.005274,45.2618026 135.975877,44.7339056 135.917082,44.2274678 C135.858287,43.72103 135.669304,43.2274678 135.350132,42.7467811 C134.879773,42.0429185 134.300225,41.5493562 133.611485,41.2660944 C132.922746,40.9828326 132.175212,40.8412017 131.368884,40.8412017 C130.461764,40.8412017 129.684833,41.0472103 129.03809,41.4592275 C128.391347,41.8712446 127.765602,42.4034335 127.160856,43.055794 L127.160856,43.055794 L127.160856,41.2017167 L125.648989,41.2017167 L125.648989,54.5407725 L127.160856,54.5407725 Z M145.026077,54.9012876 C145.849204,54.9012876 146.579939,54.7811159 147.218283,54.5407725 C147.856627,54.3004292 148.406778,53.9613734 148.868737,53.5236052 C149.330696,53.0858369 149.708663,52.5622318 150.002637,51.9527897 C150.296611,51.3433476 150.510792,50.6695279 150.64518,49.9313305 L150.64518,49.9313305 L149.032523,49.9313305 C148.847739,51.0472103 148.415177,51.9227468 147.734837,52.5579399 C147.054498,53.193133 146.151577,53.5107296 145.026077,53.5107296 C144.236547,53.5107296 143.564606,53.3519313 143.010255,53.0343348 C142.455904,52.7167382 142.002344,52.2918455 141.649575,51.7596567 C141.296806,51.2274678 141.040629,50.6266094 140.881043,49.9570815 C140.721457,49.2875536 140.641664,48.6008584 140.641664,47.8969957 C140.641664,47.2103004 140.725657,46.527897 140.893642,45.8497854 C141.061627,45.1716738 141.322004,44.5622318 141.674773,44.0214592 C142.027542,43.4806867 142.481102,43.0472103 143.035453,42.72103 C143.589804,42.3948498 144.253345,42.2317597 145.026077,42.2317597 C146.033988,42.2317597 146.865514,42.5107296 147.520656,43.0686695 C148.175798,43.6266094 148.637758,44.4034335 148.906534,45.3991416 L148.906534,45.3991416 L150.443598,45.3991416 C150.208419,43.8369099 149.62467,42.6866953 148.692353,41.9484979 C147.760035,41.2103004 146.537943,40.8412017 145.026077,40.8412017 C144.051763,40.8412017 143.190839,41.0343348 142.443305,41.4206009 C141.695771,41.806867 141.070026,42.3261803 140.566071,42.9785408 C140.062115,43.6309013 139.679949,44.3819742 139.419572,45.2317597 C139.159195,46.0815451 139.029007,46.9699571 139.029007,47.8969957 C139.029007,48.8755365 139.146596,49.7939914 139.381776,50.6523605 C139.616955,51.5107296 139.978123,52.2532189 140.46528,52.8798283 C140.952437,53.5064378 141.573982,54 142.329915,54.360515 C143.085848,54.72103 143.984569,54.9012876 145.026077,54.9012876 Z M155.004395,59.7939914 C155.525149,59.7939914 155.974509,59.6695279 156.352476,59.4206009 C156.730442,59.1716738 157.074812,58.8111588 157.385585,58.3390558 C157.696357,57.8669528 157.990331,57.2961373 158.267507,56.6266094 C158.544682,55.9570815 158.834456,55.2017167 159.13683,54.360515 L159.13683,54.360515 L164,41.2017167 L162.362145,41.2017167 L158.179314,52.6609442 L153.996484,41.2017167 L152.308233,41.2017167 L157.372986,54.6437768 C157.221799,54.9356223 157.087411,55.2918455 156.969821,55.7124464 C156.852232,56.1330472 156.705245,56.5364807 156.52886,56.9227468 C156.352476,57.3090129 156.129895,57.639485 155.861119,57.9141631 C155.592343,58.1888412 155.247973,58.3261803 154.828011,58.3261803 C154.60963,58.3261803 154.395449,58.3090129 154.185467,58.2746781 C153.975486,58.2403433 153.769704,58.2060086 153.568122,58.1716738 L153.568122,58.1716738 L153.568122,59.6137339 C153.769704,59.6652361 153.992284,59.7081545 154.235863,59.7424893 C154.479441,59.776824 154.735619,59.7939914 155.004395,59.7939914 Z" id="path-1"></path>
    </defs>
    <g id="NEXTON-AGENCY-V3" stroke="none" stroke-width="1" fill="none" fill-rule="evenodd">
        <g id="Home_Desktop_Welcome" transform="translate(-120.000000, -45.000000)" fill-rule="nonzero">
            <g id="Desktop-/-Gabarit-Page" transform="translate(120.000000, 45.000000)">
                <g id="Group">
                    <g id="Logo---Nexton-Agency_Logo-impression">
                        <g id="layer1" fill="#FFFFFF">
                            <g id="g1523">
                                <g id="g1003">
                                    <path d="M26.7058595,0.137115385 L26.7058595,30.8887179 L0.138206278,30.8887179 L0.138206278,0.137115385 L26.7058595,0.137115385 Z M5.91068375,7.45958825 L5.8006577,7.45987179 C5.55502392,7.45673061 5.31734765,7.54622107 5.13566517,7.71025641 C4.96006112,7.89621266 4.86886071,8.14539319 4.88328849,8.39980769 L4.88328849,8.39980769 L4.88328849,28.5637179 C4.88092944,28.7884656 4.97225738,29.0041967 5.13566517,29.1598718 C5.30298362,29.3261054 5.53190581,29.416664 5.76860987,29.4102564 C5.9951456,29.4125968 6.21259307,29.3219898 6.36950673,29.1598718 C6.54975534,29.0136228 6.65418803,28.7947318 6.65393124,28.5637179 L6.65393124,28.5637179 L6.65393124,10.9592949 L20.2221824,29.0962821 C20.3151781,29.1860372 20.4220115,29.2604986 20.5386547,29.316859 C20.6781569,29.3778839 20.8288554,29.4096799 20.9813154,29.4102564 C21.2501069,29.4274031 21.5130898,29.3275121 21.7016131,29.1366597 C21.8901365,28.9458074 21.9854894,28.6829358 21.9627803,28.4166667 L21.9627803,28.4166667 L21.9627803,8.34615385 C21.9692388,8.11131814 21.8779597,7.8842029 21.7104036,7.71820513 C21.5474904,7.54545695 21.3154845,7.45367847 21.0774589,7.46782051 L21.0774589,7.46782051 L20.9600497,7.47274133 C20.7662861,7.49404054 20.5841795,7.58001137 20.4447002,7.7183897 C20.2773251,7.88444369 20.1860172,8.11139655 20.1921375,8.34615385 L20.1921375,8.34615385 L20.1921375,26.0320513 L6.55979073,7.80365385 C6.38092751,7.56993711 6.09581782,7.44082194 5.8006577,7.45987179 Z" id="Combined-Shape"></path>
                                    <path d="M43.6912108,27.5741026 C43.9442917,27.564574 44.1883436,27.6681337 44.3562033,27.8562821 C44.5385682,28.027111 44.6415259,28.2652097 44.6406278,28.5140385 C44.6502322,28.7651218 44.5458486,29.0072473 44.3562033,29.1737821 C44.1786367,29.3443555 43.9381374,29.4349089 43.6912108,29.4241667 L32.0838864,29.4241667 C31.8261065,29.446863 31.5714168,29.3552247 31.3882294,29.1738666 C31.205042,28.9925086 31.1121369,28.7400233 31.1344694,28.4842308 L31.1344694,8.39980769 C31.1237688,8.15506338 31.2158829,7.91688154 31.388849,7.74205128 C31.5709076,7.55621234 31.8227394,7.45397071 32.0838864,7.45987179 L43.6912108,7.45987179 C44.0707408,7.46008445 44.412858,7.68684937 44.5583331,8.03462502 C44.7038083,8.38240068 44.6240594,8.78285812 44.3562033,9.04961538 C44.1786367,9.22018881 43.9381374,9.31074219 43.6912108,9.3 L33.1274439,9.3 L33.1274439,17.1771795 L42.2630792,17.1771795 C42.6422449,17.1781927 42.9836232,17.4052514 43.1285855,17.752848 C43.2735478,18.1004446 43.1936699,18.5004223 42.9260688,18.7669231 C42.7494519,18.9379122 42.5096524,19.0291936 42.2630792,19.0192949 L33.1274439,19.0192949 L33.1274439,27.5542308 L43.6912108,27.5741026 Z" id="path926"></path>
                                    <path d="M65.6980568,27.9019872 C65.82636,28.0625333 65.9024946,28.2579505 65.9163827,28.4623718 C65.9244905,28.7344668 65.8099439,28.9959902 65.6039163,29.1757692 C65.4249229,29.3387521 65.1898642,29.4276253 64.9469357,29.4241667 C64.643224,29.4310038 64.3578499,29.2804072 64.1938117,29.0267308 L57.429716,19.9234615 L50.6976682,28.9969231 C50.5444261,29.2652095 50.2573689,29.4307683 49.9465471,29.4301282 C49.7118647,29.4373095 49.4847458,29.347323 49.3196114,29.1817308 C49.1791254,29.0141353 49.1012947,28.8035453 49.0992825,28.5855769 C49.1056699,28.3611556 49.1827162,28.1443491 49.3196114,27.9655769 L56.3661286,18.4569231 L49.2875635,8.94230769 C49.1466544,8.79000217 49.068709,8.59064651 49.0692331,8.38391026 C49.0684477,8.13666304 49.1706489,7.90007601 49.3516592,7.73012821 C49.5363129,7.55353768 49.7822179,7.45396054 50.0386846,7.45181316 C50.3439738,7.44736336 50.6338036,7.5848835 50.8218535,7.82352564 L57.5559043,16.9267949 L64.2579073,7.85532051 C64.4339325,7.61595382 64.7106024,7.46956126 65.0090284,7.45788462 C65.243625,7.45118432 65.4705579,7.54109712 65.6359641,7.70628205 C65.8148505,7.83656096 65.9192943,8.04453999 65.9163827,8.26467949 C65.9017737,8.47985664 65.8260817,8.68653871 65.6980568,8.86083333 L58.6515396,18.3992949 L65.6980568,27.9019872 Z" id="path928"></path>
                                    <path d="M86.3488789,7.45987179 C86.5957289,7.44960118 86.8360468,7.54008629 87.0138714,7.71025641 C87.1954772,7.8820179 87.298246,8.12008059 87.298246,8.36900641 C87.298246,8.61793224 87.1954772,8.85599492 87.0138714,9.02775641 C86.8275203,9.18068099 86.590465,9.25931186 86.3488789,9.24833333 L79.8011061,9.24833333 L79.8011061,28.4842308 C79.8065687,28.7432272 79.7035898,28.9928865 79.5166816,29.1737821 C79.3256782,29.342148 79.0770347,29.4317208 78.8216442,29.4241667 C78.5555344,29.4345726 78.2952332,29.3451795 78.0925561,29.1737821 C77.9228506,28.9842862 77.8325651,28.7376054 77.8401794,28.4842308 L77.8401794,9.24833333 L71.2924066,9.24833333 C71.0367452,9.25534335 70.7880678,9.16504726 70.5973692,8.99596154 C70.4276023,8.82246688 70.3364637,8.58780734 70.3449925,8.34615385 C70.338534,8.11131814 70.4298131,7.8842029 70.5973692,7.71820513 C70.7889976,7.55088257 71.0372116,7.46146443 71.2924066,7.46782051 L86.3488789,7.45987179 Z" id="path930"></path>
                                    <path d="M112.329656,18.4430128 C112.36137,20.4032155 111.90742,22.3411551 111.007683,24.0866026 C109.278524,27.4258424 105.81228,29.5252962 102.028281,29.5252962 C98.2442822,29.5252962 94.778038,27.4258424 93.0488789,24.0866026 C92.1491418,22.3411551 91.6951924,20.4032155 91.7269058,18.4430128 C91.6924695,16.4723613 92.1464244,14.5234803 93.0488789,12.7676282 C93.8796221,11.1541953 95.1467588,9.80210429 96.7083408,8.86282051 C100.004376,6.99222679 104.052186,6.99222679 107.348221,8.86282051 C108.908863,9.80324939 110.17572,11.1550424 111.007683,12.7676282 C111.910138,14.5234803 112.364093,16.4723613 112.329656,18.4430128 L112.329656,18.4430128 Z M110.360717,18.4430128 C110.39093,16.8036241 110.021952,15.1812102 109.285112,13.7135256 C108.638414,12.3658577 107.613212,11.2321319 106.332706,10.4485897 C105.038313,9.66376963 103.544996,9.26184694 102.028281,9.2900641 C98.9320956,9.20594885 96.0763855,10.9387146 94.7414051,13.7115385 C94.0238616,15.1848719 93.6656961,16.804997 93.6958445,18.4410256 C93.6680988,20.0870256 94.0260202,21.7169305 94.7414051,23.2023077 C96.0940855,25.9563962 98.9432851,27.6730847 102.030284,27.5939744 C103.546913,27.6200207 105.039525,27.2160324 106.332706,26.4294872 C107.607151,25.6527613 108.631463,24.5310507 109.285112,23.1963462 C110.01985,21.719265 110.389905,20.0899785 110.364723,18.4430128 L110.360717,18.4430128 Z" id="path932"></path>
                                    <path d="M132.950433,7.45987179 C133.188459,7.44572975 133.420465,7.53750823 133.583378,7.71025641 C133.750934,7.87625418 133.842213,8.10336943 133.835755,8.33820513 L133.835755,28.4166667 C133.849468,28.6958507 133.746578,28.9682972 133.55133,29.1698077 C133.360327,29.3381736 133.111683,29.4277465 132.856293,29.4201923 C132.70379,29.4200205 132.553008,29.388207 132.413632,29.3267949 C132.296703,29.2709169 132.189795,29.1964037 132.09716,29.1062179 L118.526906,10.9692308 L118.526906,28.5736538 C118.527163,28.8046677 118.42273,29.0235587 118.242481,29.1698077 C118.085568,29.3319257 117.86812,29.4225327 117.641584,29.4201923 C117.404923,29.426364 117.176091,29.3358412 117.00864,29.1698077 C116.845232,29.0141326 116.753904,28.7984015 116.756263,28.5736538 L116.756263,8.39980769 C116.741835,8.14539319 116.833036,7.89621266 117.00864,7.71025641 C117.190534,7.54656406 117.428069,7.4571268 117.673632,7.45987179 C117.96886,7.44045732 118.254136,7.56964773 118.432765,7.80365385 L132.065112,26.0320513 L132.065112,8.34615385 C132.058992,8.11139655 132.1503,7.88444369 132.317675,7.7183897 C132.48505,7.5523357 132.713808,7.46174851 132.950433,7.46782051 L132.950433,7.45987179 Z" id="path934"></path>
                                </g>
                            </g>
                        </g>
                        <g id="Agency">
                            <use fill="#000000" xlink:href="#path-1"></use>
                            <use fill="#FFFFFF" xlink:href="#path-1"></use>
                        </g>
                    </g>
                </g>
            </g>
        </g>
    </g>
</svg>