<?xml version="1.0" encoding="UTF-8"?>
<svg width="21px" height="17px" viewBox="0 0 21 17" version="1.1" xmlns="http://www.w3.org/2000/svg" xmlns:xlink="http://www.w3.org/1999/xlink">
    <title>945DADA5-4C2C-4EC8-89C3-7ED91D372CC6</title>
    <g id="NEXTON-AGENCY-V3" stroke="none" stroke-width="1" fill="none" fill-rule="evenodd">
        <g id="Home_Desktop_Welcome" transform="translate(-1265.000000, -822.000000)" fill="#FFFFFF">
            <g id="Social-Media---contact" transform="translate(120.000000, 798.000000)">
                <g id="Group" transform="translate(0.000000, 14.000000)">
                    <g id="Twitter" transform="translate(1145.000000, 10.000000)">
                        <path d="M0,14.61 C1.841,15.791 4.028,16.48 6.377,16.48 C14.101,16.48 18.465,9.956 18.203,4.104 C19.015,3.518 19.721,2.785 20.278,1.95 C19.532,2.281 18.73,2.505 17.889,2.605 C18.748,2.091 19.407,1.276 19.718,0.303 C18.914,0.78 18.023,1.127 17.077,1.313 C16.317,0.505 15.236,0 14.039,0 C11.354,0 9.38,2.505 9.987,5.108 C6.529,4.935 3.463,3.278 1.412,0.761 C0.322,2.631 0.846,5.078 2.699,6.316 C2.017,6.294 1.375,6.106 0.814,5.795 C0.769,7.723 2.15,9.525 4.151,9.927 C3.565,10.087 2.924,10.123 2.273,9.998 C2.801,11.652 4.338,12.854 6.159,12.888 C4.41,14.259 2.207,14.871 0,14.61" id="Fill-62"></path>
                    </g>
                </g>
            </g>
        </g>
    </g>
</svg>