<?xml version="1.0" encoding="UTF-8"?>
<svg width="36px" height="72px" viewBox="0 0 36 72" version="1.1" xmlns="http://www.w3.org/2000/svg" xmlns:xlink="http://www.w3.org/1999/xlink">
    <title>Shape</title>
    <g id="NEXTON-AGENCY-V3" stroke="none" stroke-width="1" fill="none" fill-rule="evenodd">
        <g id="AGENCY_Desktop" transform="translate(-238.000000, -1765.000000)" fill="#000000" fill-rule="nonzero">
            <g id="LOCALISATION" transform="translate(-125.000000, 1114.000000)">
                <path d="M382.229159,657.322168 L382.26729,657.366691 C382.26729,657.678347 382.26729,657.997423 382.26729,657.997423 C383.04486,696.650211 389.017944,706.497063 389.017944,706.497063 L390.461682,706.497063 L390.461682,709.843657 C392.114019,714.629805 399,723 399,723 L390.805607,723 C390.805607,723 387.934579,714.355251 381.040374,714.288467 C381.011215,714.288467 380.988785,714.288467 380.958879,714.288467 C374.064673,714.355251 371.193645,723 371.193645,723 L363,723 C363,723 369.885234,714.629805 371.538318,709.843657 L371.538318,706.497063 L372.988037,706.497063 C372.988037,706.497063 378.961869,696.650211 379.731963,657.997423 C379.731963,657.997423 379.731963,657.685767 379.731963,657.366691 L379.731963,657.35927 C379.209346,656.980831 378.857196,656.364939 378.857196,655.674843 C378.857196,654.702772 379.523364,653.89395 380.419813,653.663918 L380.412336,653.634237 C380.57757,652.231784 380.757009,651.089045 380.995514,651 C381.190654,651.081624 381.385047,652.231784 381.548785,653.671339 C382.415327,653.931052 383.051589,654.725033 383.051589,655.674843 C383.052336,656.34342 382.730093,656.944471 382.229159,657.322168 Z M381.00035,706 L384,706 C384,706 382.80855,701.67493 382.500175,698 L380.99965,698 L379.499825,698 C379.19145,701.675676 378,706 378,706 L381.00035,706 L381.00035,706 Z" id="Shape"></path>
            </g>
        </g>
    </g>
</svg>