<?xml version="1.0" encoding="UTF-8"?>
<svg width="53px" height="52px" viewBox="0 0 53 52" version="1.1" xmlns="http://www.w3.org/2000/svg" xmlns:xlink="http://www.w3.org/1999/xlink">
    <title>Immeuble</title>
    <g id="NEXTON-AGENCY-V3" stroke="none" stroke-width="1" fill="none" fill-rule="evenodd">
        <g id="AGENCY_Desktop" transform="translate(-238.000000, -1896.000000)">
            <g id="LOCALISATION" transform="translate(-125.000000, 1114.000000)">
                <g id="Immeuble" transform="translate(363.000000, 782.000000)">
                    <rect id="Rectangle" x="18.5" y="40" width="7" height="7"></rect>
                    <rect id="Rectangle" x="18.5" y="28" width="7" height="7"></rect>
                    <rect id="Rectangle" x="7.5" y="28" width="6" height="7"></rect>
                    <rect id="Rectangle" x="7.5" y="40" width="6" height="7"></rect>
                    <rect id="Rectangle" x="18.5" y="16" width="7" height="7"></rect>
                    <rect id="Rectangle" x="7.5" y="16" width="6" height="7"></rect>
                    <path d="M32.5,5.58354588 L32.5,1.27163485 C32.5,0.848898469 32.4135135,0.426162093 32.0675676,0.257067542 C31.7216216,0.00342571651 31.2891892,-0.0811215588 30.9432432,0.0879729918 L6.72702703,7.18994411 C4.65135135,7.69722776 3.09459459,9.72636237 3.09459459,11.755497 L3.09459459,50.3090545 L1.7972973,50.3090545 C1.01891892,50.3090545 0.5,50.3936018 0.5,51.1545272 C0.5,51.9154527 1.10540541,52 1.7972973,52 L32.5,52 L32.5,5.58354588 L32.5,5.58354588 Z M14.3378378,46.9271635 L8.28378378,46.9271635 L8.28378378,40.1633815 L14.3378378,40.1633815 L14.3378378,46.9271635 Z M14.3378378,34.2450722 L8.28378378,34.2450722 L8.28378378,27.4812902 L14.3378378,27.4812902 L14.3378378,34.2450722 Z M14.3378378,23.2539264 L8.28378378,23.2539264 L8.28378378,16.4901444 L14.3378378,16.4901444 L14.3378378,23.2539264 Z M26.4459459,46.9271635 L19.527027,46.9271635 L19.527027,40.1633815 L26.4459459,40.1633815 L26.4459459,46.9271635 Z M26.4459459,34.2450722 L19.527027,34.2450722 L19.527027,27.4812902 L26.4459459,27.4812902 L26.4459459,34.2450722 Z M26.4459459,23.2539264 L19.527027,23.2539264 L19.527027,16.4901444 L26.4459459,16.4901444 L26.4459459,23.2539264 Z" id="Shape" fill="#000000" fill-rule="nonzero"></path>
                    <path d="M52.5,50.8870674 C52.5,50.1165756 51.9818182,49.6885246 51.0318182,49.6885246 L49.9090909,49.6885246 L49.9090909,13.9034608 C49.9090909,11.848816 48.1818182,9.79417122 46.2818182,9.19489982 L33.5,5 L33.5,52 L51.1181818,52 C51.8954545,52 52.5,51.571949 52.5,50.8870674 Z M43.8636364,46.863388 L36.9545455,46.863388 L36.9545455,40.0145719 L43.8636364,40.0145719 L43.8636364,46.863388 Z M43.8636364,34.0218579 L36.9545455,34.0218579 L36.9545455,27.1730419 L43.8636364,27.1730419 L43.8636364,34.0218579 Z M43.8636364,22.8925319 L36.9545455,22.8925319 L36.9545455,16.0437158 L43.8636364,16.0437158 L43.8636364,22.8925319 Z" id="Shape" fill="#000000" fill-rule="nonzero"></path>
                </g>
            </g>
        </g>
    </g>
</svg>